<?xml version="1.0" encoding="utf-8"?><svg xmlns="http://www.w3.org/2000/svg" xmlns:xlink="http://www.w3.org/1999/xlink" width="1536" height="714" preserveAspectRatio="xMidYMid" viewBox="0 0 1536 714" style="z-index:1;margin-right:-2px;display:block;background-repeat-y:initial;background-repeat-x:initial;background-color:rgb(0, 91, 137);animation-play-state:paused" ><g transform="translate(768,357) scale(1,1) translate(-768,-357)" style="transform:matrix(1, 0, 0, 1, 0, 0);animation-play-state:paused" ><defs style="animation-play-state:paused" ><linearGradient id="ldbk-photon-3kmos60uxpd-lg" x1="743" x2="1536" y1="0" y2="0" gradientUnits="userSpaceOnUse" style="animation-play-state:paused" ><stop stop-color="#69a5ff" offset="0" style="animation-play-state:paused" ></stop>

    
<stop stop-color="#34ffef" offset="1" style="animation-play-state:paused" ></stop></linearGradient>

  
<mask id="ldbk-photon-3kmos60uxpd-mask" style="animation-play-state:paused" ><g style="animation-play-state:paused" ><path d="M1836 -0.5 L766.6351923086752 -0.5 A15 15 0 0 1 766.6351923086752 30.5 L1836 30.5" fill="#fff" transform="matrix(1,0,0,1,33.12434387207031,0)" style="transform:matrix(1, 0, 0, 1, 33.1243, 0);animation-play-state:paused" ></path>
<path d="M1598.778552748626 -0.5 L1631.557105497252 -0.5 A15 15 0 0 1 1631.557105497252 30.5 L1598.778552748626 30.5 A15 15 0 0 1 1598.778552748626 -0.5" fill="#000" transform="matrix(1,0,0,1,0,0)" opacity="1" style="transform:matrix(1, 0, 0, 1, 0, 0);animation-play-state:paused" ></path>
<path d="M1836 29.5 L716.0983452802261 29.5 A15 15 0 0 0 716.0983452802261 60.5 L1836 60.5" fill="#fff" transform="matrix(1,0,0,1,-3.8642578125,0)" style="transform:matrix(1, 0, 0, 1, -3.86426, 0);animation-play-state:paused" ></path>
<path d="M811.3080622485224 29.5 L845.0727019170604 29.5 A15 15 0 0 1 845.0727019170604 60.5 L811.3080622485224 60.5 A15 15 0 0 1 811.3080622485224 29.5" fill="#fff" transform="matrix(1,0,0,1,0,0)" opacity="1" style="transform:matrix(1, 0, 0, 1, 0, 0);animation-play-state:paused" ></path>
<path d="M1836 59.5 L753.9983763912638 59.5 A15 15 0 0 1 753.9983763912638 90.5 L1836 90.5" fill="#fff" transform="matrix(1,0,0,1,18.669546127319336,0)" style="transform:matrix(1, 0, 0, 1, 18.6695, 0);animation-play-state:paused" ></path>
<path d="M1587.4172745067503 59.5 L1608.8345490135007 59.5 A15 15 0 0 1 1608.8345490135007 90.5 L1587.4172745067503 90.5 A15 15 0 0 1 1587.4172745067503 59.5" fill="#000" transform="matrix(1,0,0,1,-324.94866943359375,0)" opacity="1" style="transform:matrix(1, 0, 0, 1, -324.949, 0);animation-play-state:paused" ></path>
<path d="M1836 89.5 L700.5031957416825 89.5 A15 15 0 0 0 700.5031957416825 120.5 L1836 120.5" fill="#fff" transform="matrix(1,0,0,1,-24.225751876831055,0)" style="transform:matrix(1, 0, 0, 1, -24.2258, 0);animation-play-state:paused" ></path>
<path d="M774.165189292213 89.5 L784.2957439980565 89.5 A15 15 0 0 1 784.2957439980565 120.5 L774.165189292213 120.5 A15 15 0 0 1 774.165189292213 89.5" fill="#fff" transform="matrix(1,0,0,1,0,0)" opacity="0.357143" style="transform:matrix(1, 0, 0, 1, 0, 0);opacity:0.357143;animation-play-state:paused" ></path>
<path d="M1836 119.5 L730.4993215591567 119.5 A15 15 0 0 1 730.4993215591567 150.5 L1836 150.5" fill="#fff" transform="matrix(1,0,0,1,7.246040247856078e-13,0)" style="transform:matrix(1, 0, 0, 1, 7.24604e-13, 0);animation-play-state:paused" ></path>
<path d="M1601.4329537639962 119.5 L1636.8659075279925 119.5 A15 15 0 0 1 1636.8659075279925 150.5 L1601.4329537639962 150.5 A15 15 0 0 1 1601.4329537639962 119.5" fill="#000" transform="matrix(1,0,0,1,0,0)" opacity="1" style="transform:matrix(1, 0, 0, 1, 0, 0);animation-play-state:paused" ></path>
<path d="M1836 149.5 L691.445309169579 149.5 A15 15 0 0 0 691.445309169579 180.5 L1836 180.5" fill="#fff" transform="matrix(1,0,0,1,-3.4395694732666016,0)" style="transform:matrix(1, 0, 0, 1, -3.43957, 0);animation-play-state:paused" ></path>
<path d="M804.38122215543 149.5 L827.9973151774085 149.5 A15 15 0 0 1 827.9973151774085 180.5 L804.38122215543 180.5 A15 15 0 0 1 804.38122215543 149.5" fill="#fff" transform="matrix(1,0,0,1,0,0)" opacity="0.178571" style="transform:matrix(1, 0, 0, 1, 0, 0);opacity:0.178571;animation-play-state:paused" ></path>
<path d="M1836 179.5 L736.3843995794925 179.5 A15 15 0 0 1 736.3843995794925 210.5 L1836 210.5" fill="#fff" transform="matrix(1,0,0,1,0,0)" style="transform:matrix(1, 0, 0, 1, 0, 0);animation-play-state:paused" ></path>
<path d="M1600.5792875646603 179.5 L1635.1585751293205 179.5 A15 15 0 0 1 1635.1585751293205 210.5 L1600.5792875646603 210.5 A15 15 0 0 1 1600.5792875646603 179.5" fill="#000" transform="matrix(1,0,0,1,-869.5177001953125,0)" opacity="0.357143" style="transform:matrix(1, 0, 0, 1, -869.518, 0);opacity:0.357143;animation-play-state:paused" ></path>
<path d="M1836 209.5 L701.8060768464946 209.5 A15 15 0 0 0 701.8060768464946 240.5 L1836 240.5" fill="#fff" transform="matrix(1,0,0,1,-3.6117281913757324,0)" style="transform:matrix(1, 0, 0, 1, -3.61173, 0);animation-play-state:paused" ></path>
<path d="M783.5562188882599 209.5 L815.7419114007046 209.5 A15 15 0 0 1 815.7419114007046 240.5 L783.5562188882599 240.5 A15 15 0 0 1 783.5562188882599 209.5" fill="#fff" transform="matrix(1,0,0,1,0,0)" opacity="0.535714" style="transform:matrix(1, 0, 0, 1, 0, 0);opacity:0.535714;animation-play-state:paused" ></path>
<path d="M1836 239.5 L716.2978679143164 239.5 A15 15 0 0 1 716.2978679143164 270.5 L1836 270.5" fill="#fff" transform="matrix(1,0,0,1,32.59480667114258,0)" style="transform:matrix(1, 0, 0, 1, 32.5948, 0);animation-play-state:paused" ></path>
<path d="M1590.2192472120137 239.5 L1614.4384944240273 239.5 A15 15 0 0 1 1614.4384944240273 270.5 L1590.2192472120137 270.5 A15 15 0 0 1 1590.2192472120137 239.5" fill="#000" transform="matrix(1,0,0,1,0,0)" opacity="1" style="transform:matrix(1, 0, 0, 1, 0, 0);animation-play-state:paused" ></path>
<path d="M1836 269.5 L697.0183133824863 269.5 A15 15 0 0 0 697.0183133824863 300.5 L1836 300.5" fill="#fff" transform="matrix(1,0,0,1,-38.99053192138672,0)" style="transform:matrix(1, 0, 0, 1, -38.9905, 0);animation-play-state:paused" ></path>
<path d="M778.7982039923046 269.5 L803.6965079378209 269.5 A15 15 0 0 1 803.6965079378209 300.5 L778.7982039923046 300.5 A15 15 0 0 1 778.7982039923046 269.5" fill="#fff" transform="matrix(1,0,0,1,0,0)" opacity="1" style="transform:matrix(1, 0, 0, 1, 0, 0);animation-play-state:paused" ></path>
<path d="M1836 299.5 L764.6670337298867 299.5 A15 15 0 0 1 764.6670337298867 330.5 L1836 330.5" fill="#fff" transform="matrix(1,0,0,1,0,0)" style="transform:matrix(1, 0, 0, 1, 0, 0);animation-play-state:paused" ></path>
<path d="M1578.4091066064166 299.5 L1590.8182132128331 299.5 A15 15 0 0 1 1590.8182132128331 330.5 L1578.4091066064166 330.5 A15 15 0 0 1 1578.4091066064166 299.5" fill="#000" transform="matrix(1,0,0,1,-745.4736938476562,0)" opacity="0.714286" style="transform:matrix(1, 0, 0, 1, -745.474, 0);opacity:0.714286;animation-play-state:paused" ></path>
<path d="M1836 329.5 L725.764337032096 329.5 A15 15 0 0 0 725.764337032096 360.5 L1836 360.5" fill="#fff" transform="matrix(1,0,0,1,-2.7039051055908203,0)" style="transform:matrix(1, 0, 0, 1, -2.70391, 0);animation-play-state:paused" ></path>
<path d="M780.7402872117706 329.5 L804.4763209294777 329.5 A15 15 0 0 1 804.4763209294777 360.5 L780.7402872117706 360.5 A15 15 0 0 1 780.7402872117706 329.5" fill="#fff" transform="matrix(1,0,0,1,0,0)" opacity="1" style="transform:matrix(1, 0, 0, 1, 0, 0);animation-play-state:paused" ></path>
<path d="M1836 359.5 L756.2766454190831 359.5 A15 15 0 0 1 756.2766454190831 390.5 L1836 390.5" fill="#fff" transform="matrix(1,0,0,1,6.296973793090688e-12,0)" style="transform:matrix(1, 0, 0, 1, 6.29697e-12, 0);animation-play-state:paused" ></path>
<path d="M1577.9789081123001 359.5 L1589.9578162246003 359.5 A15 15 0 0 1 1589.9578162246003 390.5 L1577.9789081123001 390.5 A15 15 0 0 1 1577.9789081123001 359.5" fill="#000" transform="matrix(1,0,0,1,-619.8424682617188,0)" opacity="0.714285" style="transform:matrix(1, 0, 0, 1, -619.842, 0);opacity:0.714285;animation-play-state:paused" ></path>
<path d="M1836 389.5 L721.4196455926168 389.5 A15 15 0 0 0 721.4196455926168 420.5 L1836 420.5" fill="#fff" transform="matrix(1,0,0,1,-3.6063547134399414,0)" style="transform:matrix(1, 0, 0, 1, -3.60635, 0);animation-play-state:paused" ></path>
<path d="M832.6510414590151 389.5 L858.7877964565762 389.5 A15 15 0 0 1 858.7877964565762 420.5 L832.6510414590151 420.5 A15 15 0 0 1 832.6510414590151 389.5" fill="#fff" transform="matrix(1,0,0,1,0,0)" opacity="0.178571" style="transform:matrix(1, 0, 0, 1, 0, 0);opacity:0.178571;animation-play-state:paused" ></path>
<path d="M1836 419.5 L751.3134289648282 419.5 A15 15 0 0 1 751.3134289648282 450.5 L1836 450.5" fill="#fff" transform="matrix(1,0,0,1,21.491321563720703,0)" style="transform:matrix(1, 0, 0, 1, 21.4913, 0);animation-play-state:paused" ></path>
<path d="M1586.7647548041869 419.5 L1607.5295096083737 419.5 A15 15 0 0 1 1607.5295096083737 450.5 L1586.7647548041869 450.5 A15 15 0 0 1 1586.7647548041869 419.5" fill="#000" transform="matrix(1,0,0,1,-713.7305908203125,0)" opacity="0.714286" style="transform:matrix(1, 0, 0, 1, -713.731, 0);opacity:0.714286;animation-play-state:paused" ></path>
<path d="M1836 449.5 L725.3088253610586 449.5 A15 15 0 0 0 725.3088253610586 480.5 L1836 480.5" fill="#fff" transform="matrix(1,0,0,1,-20.78856086730957,0)" style="transform:matrix(1, 0, 0, 1, -20.7886, 0);animation-play-state:paused" ></path>
<path d="M847.6577389200579 449.5 L879.649303748478 449.5 A15 15 0 0 1 879.649303748478 480.5 L847.6577389200579 480.5 A15 15 0 0 1 847.6577389200579 449.5" fill="#fff" transform="matrix(1,0,0,1,0,0)" opacity="0.357143" style="transform:matrix(1, 0, 0, 1, 0, 0);opacity:0.357143;animation-play-state:paused" ></path>
<path d="M1836 479.5 L790.4583439890212 479.5 A15 15 0 0 1 790.4583439890212 510.5 L1836 510.5" fill="#fff" transform="matrix(1,0,0,1,47.8145866394043,0)" style="transform:matrix(1, 0, 0, 1, 47.8146, 0);animation-play-state:paused" ></path>
<path d="M1600.3074752773182 479.5 L1634.6149505546364 479.5 A15 15 0 0 1 1634.6149505546364 510.5 L1600.3074752773182 510.5 A15 15 0 0 1 1600.3074752773182 479.5" fill="#000" transform="matrix(1,0,0,1,-0.0003736432990990579,0)" opacity="1" style="transform:matrix(1, 0, 0, 1, -0.000373643, 0);animation-play-state:paused" ></path>
<path d="M1836 509.5 L774.0626575374934 509.5 A15 15 0 0 0 774.0626575374934 540.5 L1836 540.5" fill="#fff" transform="matrix(1,0,0,1,-21.39299774169922,0)" style="transform:matrix(1, 0, 0, 1, -21.393, 0);animation-play-state:paused" ></path>
<path d="M831.4513966518327 509.5 L852.7502041393592 509.5 A15 15 0 0 1 852.7502041393592 540.5 L831.4513966518327 540.5 A15 15 0 0 1 831.4513966518327 509.5" fill="#fff" transform="matrix(1,0,0,1,0,0)" opacity="1" style="transform:matrix(1, 0, 0, 1, 0, 0);animation-play-state:paused" ></path>
<path d="M1836 539.5 L799.4349036027634 539.5 A15 15 0 0 1 799.4349036027634 570.5 L1836 570.5" fill="#fff" transform="matrix(1,0,0,1,14.74936294555664,0)" style="transform:matrix(1, 0, 0, 1, 14.7494, 0);animation-play-state:paused" ></path>
<path d="M1594.5683665839235 539.5 L1623.136733167847 539.5 A15 15 0 0 1 1623.136733167847 570.5 L1594.5683665839235 570.5 A15 15 0 0 1 1594.5683665839235 539.5" fill="#000" transform="matrix(1,0,0,1,-1271.6712646484375,0)" opacity="0.357142" style="transform:matrix(1, 0, 0, 1, -1271.67, 0);opacity:0.357142;animation-play-state:paused" ></path>
<path d="M1836 569.5 L735.0560371105586 569.5 A15 15 0 0 0 735.0560371105586 600.5 L1836 600.5" fill="#fff" transform="matrix(1,0,0,1,-16.094697952270508,0)" style="transform:matrix(1, 0, 0, 1, -16.0947, 0);animation-play-state:paused" ></path>
<path d="M880.7172912490697 569.5 L910.6765412202273 569.5 A15 15 0 0 1 910.6765412202273 600.5 L880.7172912490697 600.5 A15 15 0 0 1 880.7172912490697 569.5" fill="#fff" transform="matrix(1,0,0,1,0,0)" opacity="1" style="transform:matrix(1, 0, 0, 1, 0, 0);animation-play-state:paused" ></path>
<path d="M1836 599.5 L798.0925175628328 599.5 A15 15 0 0 1 798.0925175628328 630.5 L1836 630.5" fill="#fff" transform="matrix(1,0,0,1,0,0)" style="transform:matrix(1, 0, 0, 1, 0, 0);animation-play-state:paused" ></path>
<path d="M1598.511865101476 599.5 L1631.0237302029518 599.5 A15 15 0 0 1 1631.0237302029518 630.5 L1598.511865101476 630.5 A15 15 0 0 1 1598.511865101476 599.5" fill="#000" transform="matrix(1,0,0,1,-652.9625244140625,0)" opacity="0.714286" style="transform:matrix(1, 0, 0, 1, -652.962, 0);opacity:0.714286;animation-play-state:paused" ></path>
<path d="M1836 629.5 L749.5966474695408 629.5 A15 15 0 0 0 749.5966474695408 660.5 L1836 660.5" fill="#fff" transform="matrix(1,0,0,1,-14.743097305297852,0)" style="transform:matrix(1, 0, 0, 1, -14.7431, 0);animation-play-state:paused" ></path>
<path d="M814.7200269800167 629.5 L844.620192050165 629.5 A15 15 0 0 1 844.620192050165 660.5 L814.7200269800167 660.5 A15 15 0 0 1 814.7200269800167 629.5" fill="#fff" transform="matrix(1,0,0,1,0,0)" opacity="0.535714" style="transform:matrix(1, 0, 0, 1, 0, 0);opacity:0.535714;animation-play-state:paused" ></path>
<path d="M1836 659.5 L773.558800658882 659.5 A15 15 0 0 1 773.558800658882 690.5 L1836 690.5" fill="#fff" transform="matrix(1,0,0,1,17.65091323852539,0)" style="transform:matrix(1, 0, 0, 1, 17.6509, 0);animation-play-state:paused" ></path>
<path d="M1587.7059303250903 659.5 L1609.4118606501806 659.5 A15 15 0 0 1 1609.4118606501806 690.5 L1587.7059303250903 690.5 A15 15 0 0 1 1587.7059303250903 659.5" fill="#000" transform="matrix(1,0,0,1,-855.8242797851562,0)" opacity="0.714286" style="transform:matrix(1, 0, 0, 1, -855.824, 0);opacity:0.714286;animation-play-state:paused" ></path>
<path d="M1836 689.5 L715.130502274154 689.5 A15 15 0 0 0 715.130502274154 720.5 L1836 720.5" fill="#fff" transform="matrix(1,0,0,1,-21.99488639831543,0)" style="transform:matrix(1, 0, 0, 1, -21.9949, 0);animation-play-state:paused" ></path>
<path d="M824.0435416198941 689.5 L844.4321041110393 689.5 A15 15 0 0 1 844.4321041110393 720.5 L824.0435416198941 720.5 A15 15 0 0 1 824.0435416198941 689.5" fill="#fff" transform="matrix(1,0,0,1,0,0)" opacity="0.535714" style="transform:matrix(1, 0, 0, 1, 0, 0);opacity:0.535714;animation-play-state:paused" ></path></g></mask></defs>


<rect x="0" y="0" width="1536" height="714" fill="url(#ldbk-photon-3kmos60uxpd-lg)" mask="url(#ldbk-photon-3kmos60uxpd-mask)" style="animation-play-state:paused" ></rect></g></svg>