<svg width="273" height="44" viewBox="0 0 273 44" fill="none" xmlns="http://www.w3.org/2000/svg">
<path d="M56.5117 23.5918C53.6172 22.7598 51.5078 21.7402 50.1836 20.5332C48.8711 19.3145 48.2148 17.8145 48.2148 16.0332C48.2148 14.0176 49.0176 12.3535 50.623 11.041C52.2402 9.7168 54.3379 9.05469 56.916 9.05469C58.6738 9.05469 60.2383 9.39453 61.6094 10.0742C62.9922 10.7539 64.0586 11.6914 64.8086 12.8867C65.5703 14.082 65.9512 15.3887 65.9512 16.8066H62.5586C62.5586 15.2598 62.0664 14.0469 61.082 13.168C60.0977 12.2773 58.709 11.832 56.916 11.832C55.252 11.832 53.9512 12.2012 53.0137 12.9395C52.0879 13.666 51.625 14.6797 51.625 15.9805C51.625 17.0234 52.0645 17.9082 52.9434 18.6348C53.834 19.3496 55.3398 20.0059 57.4609 20.6035C59.5938 21.2012 61.2578 21.8633 62.4531 22.5898C63.6602 23.3047 64.5508 24.1426 65.125 25.1035C65.7109 26.0645 66.0039 27.1953 66.0039 28.4961C66.0039 30.5703 65.1953 32.2344 63.5781 33.4883C61.9609 34.7305 59.7988 35.3516 57.0918 35.3516C55.334 35.3516 53.6934 35.0176 52.1699 34.3496C50.6465 33.6699 49.4688 32.7441 48.6367 31.5723C47.8164 30.4004 47.4062 29.0703 47.4062 27.582H50.7988C50.7988 29.1289 51.3672 30.3535 52.5039 31.2559C53.6523 32.1465 55.1816 32.5918 57.0918 32.5918C58.873 32.5918 60.2383 32.2285 61.1875 31.502C62.1367 30.7754 62.6113 29.7852 62.6113 28.5312C62.6113 27.2773 62.1719 26.3105 61.293 25.6309C60.4141 24.9395 58.8203 24.2598 56.5117 23.5918ZM76.2407 24.9805V35H72.8657V9.40625H82.3052C85.1059 9.40625 87.2973 10.1211 88.8794 11.5508C90.4731 12.9805 91.27 14.873 91.27 17.2285C91.27 19.7129 90.4907 21.6289 88.9321 22.9766C87.3852 24.3125 85.1645 24.9805 82.27 24.9805H76.2407ZM76.2407 22.2207H82.3052C84.1098 22.2207 85.4927 21.7988 86.4536 20.9551C87.4145 20.0996 87.895 18.8691 87.895 17.2637C87.895 15.7402 87.4145 14.5215 86.4536 13.6074C85.4927 12.6934 84.1743 12.2188 82.4985 12.1836H76.2407V22.2207ZM114.022 35H97.2529V32.6621L106.112 22.8184C107.425 21.3301 108.327 20.123 108.819 19.1973C109.323 18.2598 109.575 17.293 109.575 16.2969C109.575 14.9609 109.171 13.8652 108.362 13.0098C107.554 12.1543 106.476 11.7266 105.128 11.7266C103.511 11.7266 102.251 12.1895 101.349 13.1152C100.458 14.0293 100.013 15.3066 100.013 16.9473H96.7607C96.7607 14.5918 97.5166 12.6875 99.0283 11.2344C100.552 9.78125 102.585 9.05469 105.128 9.05469C107.507 9.05469 109.388 9.68164 110.77 10.9355C112.153 12.1777 112.845 13.8359 112.845 15.9102C112.845 18.4297 111.239 21.4297 108.028 24.9102L101.173 32.3457H114.022V35ZM130.675 35H127.406V13.3262L120.849 15.7344V12.7812L130.165 9.2832H130.675V35Z" fill="#005B89"/>
<line x1="143.5" y1="8" x2="143.5" y2="37" stroke="#005B89"/>
<path d="M174.922 35H170.492V23.627H159.049V35H154.602V9.40625H159.049V20.0586H170.492V9.40625H174.922V35ZM181.502 25.3145C181.502 23.4512 181.872 21.7754 182.61 20.2871C183.348 18.7871 184.385 17.6387 185.721 16.8418C187.057 16.0332 188.592 15.6289 190.327 15.6289C192.893 15.6289 194.973 16.4551 196.567 18.1074C198.172 19.7598 199.04 21.9512 199.168 24.6816L199.186 25.6836C199.186 27.5586 198.823 29.2344 198.096 30.7109C197.381 32.1875 196.35 33.3301 195.002 34.1387C193.666 34.9473 192.12 35.3516 190.362 35.3516C187.678 35.3516 185.528 34.4609 183.911 32.6797C182.305 30.8867 181.502 28.502 181.502 25.5254V25.3145ZM185.774 25.6836C185.774 27.6406 186.178 29.1758 186.987 30.2891C187.795 31.3906 188.92 31.9414 190.362 31.9414C191.803 31.9414 192.922 31.3789 193.719 30.2539C194.528 29.1289 194.932 27.4824 194.932 25.3145C194.932 23.3926 194.516 21.8691 193.684 20.7441C192.864 19.6191 191.745 19.0566 190.327 19.0566C188.932 19.0566 187.825 19.6133 187.004 20.7266C186.184 21.8281 185.774 23.4805 185.774 25.6836ZM196.76 13.7832H193.368L190.221 11.2871L187.092 13.7832H183.7L188.938 9.61719H191.522L196.76 13.7832ZM194.791 5.69727C194.791 6.42383 194.528 7.06836 194 7.63086C193.485 8.18164 192.87 8.45703 192.155 8.45703C191.581 8.45703 190.93 8.26367 190.204 7.87695C189.489 7.49023 188.92 7.29688 188.499 7.29688C188.182 7.29688 187.901 7.42578 187.655 7.68359C187.42 7.94141 187.303 8.22852 187.303 8.54492L185.721 8.12305C185.721 7.37305 185.979 6.7168 186.495 6.1543C187.022 5.5918 187.637 5.31055 188.34 5.31055C188.833 5.31055 189.448 5.50391 190.186 5.89062C190.936 6.26562 191.534 6.45312 191.979 6.45312C192.284 6.45312 192.565 6.32422 192.823 6.06641C193.081 5.79688 193.209 5.49805 193.209 5.16992L194.791 5.69727ZM234.654 12.9922H226.673V35H222.261V12.9922H214.351V9.40625H234.654V12.9922ZM248.934 19.8828C248.371 19.7891 247.791 19.7422 247.193 19.7422C245.236 19.7422 243.918 20.4922 243.238 21.9922V35H238.967V15.9805H243.045L243.15 18.1074C244.182 16.4551 245.611 15.6289 247.439 15.6289C248.049 15.6289 248.553 15.7109 248.951 15.875L248.934 19.8828ZM253 25.3145C253 23.4277 253.364 21.7461 254.09 20.2695C254.829 18.7812 255.866 17.6387 257.202 16.8418C258.537 16.0332 260.073 15.6289 261.807 15.6289C264.444 15.6289 266.571 16.502 268.188 18.248C268.809 18.0254 269.26 17.6035 269.541 16.9824C269.823 16.3613 269.963 15.3828 269.963 14.0469H272.899C272.899 15.6172 272.641 16.9297 272.125 17.9844C271.61 19.0273 270.748 19.7656 269.541 20.1992C270.28 21.6641 270.661 23.3223 270.684 25.1738V25.6836C270.684 27.5586 270.321 29.2344 269.594 30.7109C268.879 32.1875 267.842 33.3301 266.483 34.1387C265.135 34.9473 263.588 35.3516 261.842 35.3516C259.182 35.3516 257.043 34.4668 255.426 32.6973C253.809 30.9277 253 28.5371 253 25.5254V25.3145ZM257.254 25.6836C257.254 27.6406 257.659 29.1758 258.467 30.2891C259.276 31.3906 260.401 31.9414 261.842 31.9414C263.284 31.9414 264.403 31.3789 265.2 30.2539C266.008 29.1289 266.412 27.4824 266.412 25.3145C266.412 23.3574 265.996 21.8281 265.164 20.7266C264.344 19.6133 263.225 19.0566 261.807 19.0566C260.412 19.0566 259.305 19.6133 258.485 20.7266C257.664 21.8281 257.254 23.4805 257.254 25.6836ZM259.311 39.3945C259.311 38.7734 259.516 38.252 259.926 37.8301C260.348 37.4199 260.946 37.2148 261.719 37.2148C262.493 37.2148 263.09 37.4199 263.512 37.8301C263.934 38.252 264.145 38.7734 264.145 39.3945C264.145 40.0156 263.934 40.5312 263.512 40.9414C263.09 41.3516 262.493 41.5566 261.719 41.5566C260.946 41.5566 260.348 41.3516 259.926 40.9414C259.516 40.5312 259.311 40.0156 259.311 39.3945Z" fill="#005B89"/>
<path d="M12.1426 29.1436C11.5365 29.1436 10.9531 29.0547 10.3926 28.877C9.83203 28.6992 9.29655 28.4258 8.78613 28.0566V25.9307H9.83203L10.0576 27.4961C10.3538 27.6784 10.6751 27.8197 11.0215 27.9199C11.3678 28.0202 11.7415 28.0703 12.1426 28.0703C12.8216 28.0703 13.348 27.9199 13.7217 27.6191C14.0954 27.3138 14.2822 26.915 14.2822 26.4229C14.2822 25.9671 14.1136 25.5889 13.7764 25.2881C13.4391 24.9873 12.8376 24.7389 11.9717 24.543C10.9417 24.306 10.1556 23.946 9.61328 23.4629C9.07096 22.9753 8.7998 22.3623 8.7998 21.624C8.7998 21.1045 8.93652 20.6396 9.20996 20.2295C9.48796 19.8193 9.87305 19.4958 10.3652 19.2588C10.8574 19.0218 11.4316 18.9033 12.0879 18.9033C12.7852 18.9033 13.4004 19.0104 13.9336 19.2246C14.4714 19.4342 14.9134 19.6895 15.2598 19.9902V21.9795H14.2139L13.9883 20.5576C13.7832 20.3936 13.528 20.2568 13.2227 20.1475C12.9173 20.0381 12.5391 19.9834 12.0879 19.9834C11.5091 19.9834 11.0397 20.1315 10.6797 20.4277C10.3242 20.724 10.1465 21.1159 10.1465 21.6035C10.1465 22.0319 10.3174 22.3828 10.6592 22.6562C11.001 22.9251 11.5934 23.1644 12.4365 23.374C13.4847 23.6338 14.2777 24.0189 14.8154 24.5293C15.3577 25.0352 15.6289 25.6618 15.6289 26.4092C15.6289 26.9424 15.4854 27.4163 15.1982 27.8311C14.9111 28.2412 14.5055 28.5625 13.9814 28.7949C13.4619 29.0273 12.849 29.1436 12.1426 29.1436ZM18.0579 29V28.1387L19.1721 27.9473V20.1064L18.0579 19.915V19.0469H22.6311C23.6929 19.0469 24.5178 19.3203 25.1057 19.8672C25.6982 20.4141 25.9944 21.1341 25.9944 22.0273C25.9944 22.9297 25.6982 23.652 25.1057 24.1943C24.5178 24.7367 23.6929 25.0078 22.6311 25.0078H20.5188V27.9473L21.633 28.1387V29H18.0579ZM20.5188 23.9551H22.6311C23.3056 23.9551 23.8092 23.7751 24.1418 23.415C24.4791 23.0505 24.6477 22.5924 24.6477 22.041C24.6477 21.4896 24.4791 21.0293 24.1418 20.6602C23.8092 20.291 23.3056 20.1064 22.6311 20.1064H20.5188V23.9551Z" fill="#0A90D2" fill-opacity="0.783333"/>
<path fill-rule="evenodd" clip-rule="evenodd" d="M11.3155 8.22222C11.3155 4.97866 13.8606 2.34921 17 2.34921C20.1394 2.34921 22.6845 4.97866 22.6845 8.22222V8.51587H11.3155V8.22222ZM9.04171 8.51587V8.22222C9.04171 3.68121 12.6048 0 17 0C21.3952 0 24.9583 3.68121 24.9583 8.22222V8.51587H31.7261C33.023 8.51587 34.0572 9.6347 33.9975 10.9731L32.9376 34.7588C32.8817 36.0129 31.8813 37 30.6662 37H3.33383C2.11866 37 1.11833 36.0129 1.0624 34.7588L0.00245327 10.9731C-0.0571534 9.6347 0.977047 8.51587 2.27389 8.51587H9.04171ZM3.33383 34.6508L2.27389 10.8651H31.7261L30.6662 34.6508H3.33383ZM11.3155 14.0952C11.3155 14.7439 10.8065 15.2698 10.1786 15.2698C9.55069 15.2698 9.04171 14.7439 9.04171 14.0952C9.04171 13.4465 9.55069 12.9206 10.1786 12.9206C10.8065 12.9206 11.3155 13.4465 11.3155 14.0952ZM23.8214 15.2698C24.4493 15.2698 24.9583 14.7439 24.9583 14.0952C24.9583 13.4465 24.4493 12.9206 23.8214 12.9206C23.1935 12.9206 22.6845 13.4465 22.6845 14.0952C22.6845 14.7439 23.1935 15.2698 23.8214 15.2698Z" fill="url(#paint0_linear_196_289)"/>
<defs>
<linearGradient id="paint0_linear_196_289" x1="17" y1="0" x2="17" y2="37" gradientUnits="userSpaceOnUse">
<stop stop-color="#004C72"/>
<stop offset="0.9999" stop-color="#0A90D2" stop-opacity="0.783333"/>
<stop offset="1" stop-color="#6B7981" stop-opacity="0"/>
</linearGradient>
</defs>
</svg>
